<mxfile host="app.diagrams.net" modified="2024-05-13T09:38:14.910Z" agent="Mozilla/5.0 (Windows NT 10.0; Win64; x64) AppleWebKit/537.36 (KHTML, like Gecko) Chrome/124.0.0.0 Safari/537.36" version="24.4.0" etag="XSFEVjERDVt3B-4Y3e_i" type="github">
  <diagram name="Page-1" id="i5kUNEdi8vmjI6FF8Jh-">
    <mxGraphModel>
      <root>
        <mxCell id="0" />
        <mxCell id="1" parent="0" />
      </root>
    </mxGraphModel>
  </diagram>
</mxfile>
